<svg width="63.000000" height="63.000000" viewBox="0 0 63 63" fill="none" xmlns="http://www.w3.org/2000/svg" xmlns:xlink="http://www.w3.org/1999/xlink">
	<desc>
			Created with Pixso.
	</desc>
	<defs>
		<clipPath id="clip30_986">
			<rect id="dog_daycare_24x" width="63.000000" height="63.000000" fill="white" fill-opacity="0"/>
		</clipPath>
	</defs>
	<rect id="dog_daycare_24x" width="63.000000" height="63.000000" fill="#FFFFFF" fill-opacity="0"/>
	<g clip-path="url(#clip30_986)">
		<path id="Vector" d="M43.5 37.4L43.5 47.25L44.49 51.18L47.44 52.17L46.46 56.1L41.54 56.1L39.57 47.25L39.57 41.34L43.5 37.4Z" fill="#DBDBDB" fill-opacity="1.000000" fill-rule="nonzero"/>
		<path id="Vector" d="M15.75 55.12L10.91 55.12C9.91 55.12 8.93 54.84 8.07 54.31C7.22 53.79 6.53 53.03 6.08 52.13C3.52 47.02 2.5 41.27 3.13 35.58L3.15 35.43C3.42 35.54 3.69 35.66 3.95 35.79C5.16 36.4 6.25 37.22 7.16 38.23C8.26 39.45 9.07 40.91 9.52 42.5C9.69 43.06 9.96 43.59 10.34 44.04C10.71 44.49 11.18 44.86 11.71 45.13L12.01 45.28L13.97 52.17L14.56 53.15L15.75 55.12Z" fill="#DBDBDB" fill-opacity="1.000000" fill-rule="nonzero"/>
		<path id="Vector" d="M14.56 53.15L11.9 53.15C10.89 53.15 9.91 52.87 9.06 52.34C8.21 51.82 7.52 51.06 7.07 50.17C5.01 46.04 3.93 41.5 3.93 36.89C3.93 36.53 3.94 36.16 3.95 35.79C5.16 36.4 6.25 37.22 7.16 38.23C8.26 39.45 9.07 40.91 9.52 42.5C9.69 43.06 9.96 43.59 10.34 44.04C10.71 44.49 11.18 44.86 11.71 45.13L12.01 45.28L13.97 52.17L14.56 53.15Z" fill="#EAEAE8" fill-opacity="1.000000" fill-rule="nonzero"/>
		<path id="Vector" d="M55.32 9.84L55.32 14.76L52.36 16.73L49.35 17.33L47.44 17.71L47.17 18.66L46.07 22.52L45.8 23.47C45.79 23.5 45.78 23.53 45.78 23.56C45.7 23.85 45.64 24.15 45.62 24.45C45.59 24.75 45.59 25.04 45.61 25.33C45.63 25.48 45.64 25.63 45.67 25.77C46.18 28.87 45.8 32.04 44.56 34.93L43.51 37.4L39.57 41.34L39.57 47.25L40.43 51.14L43.51 52.17L42.52 56.1L37.6 56.1L34.65 45.28L32.95 46.97C31.47 48.46 29.75 49.69 27.87 50.63L26.77 51.18L27.84 51.18C28.6 51.18 29.33 51.48 29.87 52.02C30.41 52.56 30.71 53.29 30.71 54.05L30.71 56.1L16.68 56.1C16.32 56.1 15.97 56.03 15.64 55.9C15.31 55.76 15.02 55.56 14.77 55.31C14.51 55.06 14.32 54.76 14.18 54.44C14.04 54.11 13.97 53.76 13.97 53.4L13.97 52.17L12.01 45.28L13.19 40.95C14.33 36.74 16.85 33.03 20.35 30.41L27.19 25.28C29.5 23.54 31.38 21.29 32.68 18.7L34.65 16.73L34.96 15.8L34.96 15.8L37.6 7.87L42.52 5.9L47.44 5.9L49.41 9.84L55.32 9.84Z" fill="#EAEAE8" fill-opacity="1.000000" fill-rule="nonzero"/>
		<path id="Vector" d="M46.46 10.82C46.46 11.37 46.02 11.81 45.47 11.81C44.93 11.81 44.49 11.37 44.49 10.82C44.49 10.28 44.93 9.84 45.47 9.84C46.02 9.84 46.46 10.28 46.46 10.82Z" fill="#8F563B" fill-opacity="1.000000" fill-rule="evenodd"/>
		<path id="Vector" d="M30 52.17L23.94 52.17C23.68 52.17 23.43 52.06 23.24 51.88C23.06 51.69 22.96 51.44 22.96 51.18C22.96 50.92 23.06 50.67 23.24 50.49C23.43 50.3 23.68 50.2 23.94 50.2C24.61 50.2 25.26 50.02 25.83 49.66C26.4 49.31 26.86 48.81 27.16 48.21C27.51 47.49 27.62 46.68 27.47 45.9C27.29 44.99 26.9 44.14 26.34 43.4C25.78 42.67 25.06 42.07 24.23 41.66L23.38 41.24C23.14 41.12 22.97 40.91 22.88 40.67C22.8 40.42 22.82 40.15 22.94 39.91C23.05 39.68 23.26 39.5 23.51 39.42C23.75 39.34 24.02 39.36 24.26 39.47L25.11 39.9C26.21 40.44 27.16 41.23 27.91 42.21C28.65 43.18 29.16 44.31 29.4 45.51C29.56 46.33 29.54 47.18 29.33 47.99C29.12 48.8 28.73 49.56 28.19 50.2L26.77 51.18L27.84 51.18C28.25 51.18 28.66 51.27 29.03 51.44C29.4 51.61 29.74 51.86 30 52.17Z" fill="#DBDBDB" fill-opacity="1.000000" fill-rule="nonzero"/>
		<path id="Vector" d="M52.36 9.84C52.36 10.62 52.68 11.37 53.23 11.93C53.78 12.48 54.53 12.79 55.32 12.79L55.32 9.84L52.36 9.84Z" fill="#8F563B" fill-opacity="1.000000" fill-rule="nonzero"/>
		<path id="Vector" d="M49.35 17.33L47.44 17.71L47.17 18.66L44.18 17.66C43.98 17.6 43.81 17.47 43.69 17.31C43.57 17.14 43.51 16.94 43.51 16.73L43.51 14.76C43.51 14.5 43.61 14.25 43.79 14.06C43.98 13.88 44.23 13.78 44.49 13.78C44.75 13.78 45 13.88 45.19 14.06C45.37 14.25 45.48 14.5 45.48 14.76L45.48 16.02L49.17 17.25C49.24 17.27 49.29 17.3 49.35 17.33Z" fill="#DBDBDB" fill-opacity="1.000000" fill-rule="nonzero"/>
		<path id="Vector" d="M46.78 23.45C46.79 23.71 46.69 23.96 46.51 24.15C46.33 24.34 46.08 24.45 45.82 24.45L45.62 24.45L45.11 24.46C45.03 24.47 44.96 24.47 44.88 24.47C42.57 24.47 40.31 23.82 38.37 22.58C36.42 21.34 34.87 19.57 33.9 17.48L34.65 16.73L34.96 15.8C34.98 15.8 35 15.81 35.02 15.82C35.04 15.83 35.06 15.84 35.09 15.85C35.1 15.86 35.12 15.87 35.13 15.88C35.15 15.89 35.17 15.9 35.19 15.91C35.35 16.02 35.48 16.17 35.55 16.34C36.33 18.17 37.63 19.73 39.29 20.83C40.95 21.92 42.89 22.5 44.88 22.5C44.95 22.5 45.01 22.5 45.08 22.5L45.78 22.48C45.88 22.48 45.98 22.49 46.07 22.52C46.27 22.58 46.45 22.7 46.58 22.87C46.71 23.03 46.78 23.24 46.78 23.45Z" fill="#5D62B5" fill-opacity="1.000000" fill-rule="nonzero"/>
		<path id="Vector" d="M49.41 24.6C49.41 24.99 49.3 25.37 49.08 25.7C48.86 26.02 48.56 26.27 48.2 26.42C47.84 26.57 47.44 26.61 47.06 26.53C46.68 26.46 46.33 26.27 46.05 25.99C45.78 25.72 45.59 25.37 45.51 24.99C45.44 24.61 45.48 24.21 45.63 23.85C45.77 23.49 46.03 23.18 46.35 22.97C46.67 22.75 47.05 22.64 47.44 22.64C47.97 22.64 48.47 22.84 48.84 23.21C49.2 23.58 49.41 24.08 49.41 24.6Z" fill="#F3AF3E" fill-opacity="1.000000" fill-rule="nonzero"/>
		<path id="Vector" d="M48.23 24.6C48.23 25.02 48.1 25.43 47.85 25.77C47.6 26.11 47.25 26.36 46.85 26.48C46.45 26.36 46.1 26.11 45.86 25.77C45.61 25.43 45.48 25.02 45.48 24.6C45.48 24.19 45.61 23.78 45.86 23.44C46.1 23.1 46.45 22.85 46.85 22.73C47.25 22.85 47.6 23.1 47.85 23.44C48.1 23.78 48.23 24.19 48.23 24.6Z" fill="#EA9D2D" fill-opacity="1.000000" fill-rule="nonzero"/>
		<path id="Vector" d="M60.04 52.17C60.04 54.34 58.28 56.1 56.1 56.1C53.93 56.1 52.17 54.34 52.17 52.17C52.17 49.99 53.93 48.23 56.1 48.23C58.28 48.23 60.04 49.99 60.04 52.17Z" fill="#5D62B5" fill-opacity="1.000000" fill-rule="evenodd"/>
		<path id="Vector" d="M60.04 52.17C60.04 53.21 59.63 54.21 58.89 54.95C58.15 55.69 57.15 56.1 56.1 56.1C56.72 54.88 57.03 53.53 57.03 52.17C57.03 50.8 56.72 49.45 56.1 48.23C57.15 48.23 58.15 48.64 58.89 49.38C59.63 50.12 60.04 51.12 60.04 52.17Z" fill="#29C3BE" fill-opacity="1.000000" fill-rule="nonzero"/>
		<path id="Vector" d="M41.54 11.81L41.54 15.15C41.54 16.19 41.12 17.19 40.38 17.93C39.64 18.67 38.64 19.09 37.6 19.09C37.49 19.09 37.38 19.08 37.27 19.07C36.61 19.02 35.97 18.8 35.42 18.42L34.1 17.55C34.05 17.51 34 17.47 33.95 17.43L34.65 16.73L34.96 15.8C34.98 15.8 35 15.81 35.02 15.82C35.04 15.83 35.06 15.84 35.09 15.85C35.1 15.86 35.12 15.87 35.14 15.88C35.15 15.89 35.17 15.9 35.19 15.91L36.51 16.79C36.8 16.98 37.15 17.1 37.5 17.12C37.86 17.13 38.21 17.05 38.53 16.88C38.84 16.72 39.1 16.47 39.29 16.16C39.47 15.86 39.57 15.51 39.57 15.15L39.57 11.81C39.57 11.55 39.67 11.3 39.86 11.11C40.04 10.93 40.29 10.82 40.55 10.82C40.81 10.82 41.06 10.93 41.25 11.11C41.43 11.3 41.54 11.55 41.54 11.81Z" fill="#C3C3C3" fill-opacity="1.000000" fill-rule="nonzero"/>
	</g>
</svg>
