<svg width="63.000000" height="63.000000" viewBox="0 0 63 63" fill="none" xmlns="http://www.w3.org/2000/svg" xmlns:xlink="http://www.w3.org/1999/xlink">
	<desc>
			Created with Pixso.
	</desc>
	<defs>
		<clipPath id="clip30_908">
			<rect id="dog_grooming_24x" width="63.000000" height="63.000000" fill="white" fill-opacity="0"/>
		</clipPath>
	</defs>
	<rect id="dog_grooming_24x" width="63.000000" height="63.000000" fill="#FFFFFF" fill-opacity="0"/>
	<g clip-path="url(#clip30_908)">
		<path id="Vector" d="M27.56 21.65L21.65 27.56C21.48 27.47 21.3 27.38 21.14 27.27C20.16 26.68 19.34 25.86 18.75 24.88C18.15 23.9 17.8 22.79 17.73 21.65C17.72 21.5 17.71 21.34 17.71 21.19L17.71 18.7L23.62 18.7L27.56 21.65Z" fill="#F3AF3E" fill-opacity="1.000000" fill-rule="nonzero"/>
		<path id="Vector" d="M25.59 24.6L23.13 26.08L21.14 27.27C20.16 26.68 19.34 25.86 18.75 24.88C18.15 23.9 17.8 22.79 17.73 21.65L22.73 21.65L25.1 24.1L25.59 24.6Z" fill="#5B3726" fill-opacity="1.000000" fill-rule="nonzero"/>
		<path id="Vector" d="M45.28 18.7L45.28 21.19C45.28 21.34 45.27 21.5 45.26 21.65C45.18 22.89 44.77 24.09 44.09 25.13C43.4 26.16 42.45 27 41.34 27.56L35.43 21.65L39.37 18.7L45.28 18.7Z" fill="#F3AF3E" fill-opacity="1.000000" fill-rule="nonzero"/>
		<path id="Vector" d="M45.26 21.65C45.19 22.72 44.88 23.75 44.36 24.68C43.84 25.61 43.11 26.41 42.24 27.02L39.37 25.59L37.4 24.6L37.89 24.1L40.26 21.65L45.26 21.65Z" fill="#5B3726" fill-opacity="1.000000" fill-rule="nonzero"/>
		<path id="Vector" d="M42.32 29.53L42.32 42.32L20.67 42.32L20.67 29.53C20.67 26.65 21.81 23.9 23.84 21.87C25.87 19.84 28.62 18.7 31.5 18.7C34.37 18.7 37.12 19.84 39.15 21.87C41.18 23.9 42.32 26.65 42.32 29.53Z" fill="#F3AF3E" fill-opacity="1.000000" fill-rule="nonzero"/>
		<path id="Vector" d="M44.29 3.93L43.31 7.87L54.14 14.76L54.14 41.34L58.07 41.34L58.07 12.79L45.28 4.26L44.29 3.93Z" fill="#B9B9B9" fill-opacity="1.000000" fill-rule="nonzero"/>
		<path id="Vector" d="M58.07 44.29L58.07 50.2C58.07 52.81 57.04 55.31 55.19 57.16C53.34 59 50.84 60.04 48.23 60.04L14.76 60.04C12.15 60.04 9.65 59 7.8 57.16C5.95 55.31 4.92 52.81 4.92 50.2L4.92 44.29L58.07 44.29Z" fill="#5D62B5" fill-opacity="1.000000" fill-rule="nonzero"/>
		<path id="Vector" d="M4.92 40.35L58.07 40.35C59.16 40.35 60.04 41.24 60.04 42.32C60.04 43.41 59.16 44.29 58.07 44.29L4.92 44.29C3.83 44.29 2.95 43.41 2.95 42.32C2.95 41.24 3.83 40.35 4.92 40.35Z" fill="#5D62B5" fill-opacity="1.000000" fill-rule="evenodd"/>
		<path id="Vector" d="M42.67 11.05L38.26 4.52L41.02 3.26C41.77 2.92 42.62 2.86 43.42 3.08C44.21 3.3 44.9 3.8 45.36 4.49C45.82 5.17 46.03 6 45.94 6.82C45.85 7.64 45.47 8.4 44.87 8.96L42.67 11.05Z" fill="#CBCBCB" fill-opacity="1.000000" fill-rule="nonzero"/>
		<path id="Vector" d="M26.26 25.65L29.22 24.67L29.84 26.54L26.89 27.52L26.26 25.65Z" fill="#D18D28" fill-opacity="1.000000" fill-rule="nonzero"/>
		<path id="Vector" d="M33.15 26.51L33.77 24.64L36.73 25.62L36.11 27.49L33.15 26.51Z" fill="#D18D28" fill-opacity="1.000000" fill-rule="nonzero"/>
		<path id="Vector" d="M37.63 33.26L36.74 31.5C35.96 31.88 33.31 34.03 32.48 33.78L32.48 31.5L30.51 31.5L30.51 33.78C29.68 34.03 27.02 31.88 26.24 31.5L25.36 33.26C26.04 33.59 28.53 35.86 29.29 35.89C30.04 35.92 30.79 35.8 31.5 35.52C32.2 35.8 32.95 35.92 33.7 35.89C34.46 35.86 36.95 33.59 37.63 33.26Z" fill="#744630" fill-opacity="1.000000" fill-rule="nonzero"/>
		<path id="Vector" d="M23.62 39.37C23.62 39.72 23.53 40.06 23.36 40.35L20.67 40.35L20.67 36.42C21.45 36.42 22.2 36.73 22.76 37.28C23.31 37.84 23.62 38.59 23.62 39.37Z" fill="#D18D28" fill-opacity="1.000000" fill-rule="nonzero"/>
		<path id="Vector" d="M42.32 36.42L42.32 40.35L39.63 40.35C39.46 40.06 39.37 39.72 39.37 39.37C39.37 38.59 39.68 37.84 40.23 37.28C40.79 36.73 41.54 36.42 42.32 36.42Z" fill="#D18D28" fill-opacity="1.000000" fill-rule="nonzero"/>
		<path id="Vector" d="M28.54 16.73L26.57 16.73C26.57 15.61 26.77 14.5 27.15 13.44L29 14.11C28.7 14.95 28.54 15.84 28.54 16.73Z" fill="#C0F5F9" fill-opacity="1.000000" fill-rule="nonzero"/>
		<path id="Vector" d="M29.9 12.36L28.27 11.25C29.06 10.1 30.08 9.14 31.27 8.43L31.97 8.01L32.99 9.7L32.28 10.12C31.34 10.69 30.52 11.45 29.9 12.36Z" fill="#C0F5F9" fill-opacity="1.000000" fill-rule="nonzero"/>
		<path id="Vector" d="M33.46 16.73L31.5 16.73C31.49 15.61 31.69 14.5 32.07 13.44L33.92 14.11C33.62 14.95 33.46 15.84 33.46 16.73Z" fill="#C0F5F9" fill-opacity="1.000000" fill-rule="nonzero"/>
		<path id="Vector" d="M34.82 12.36L33.2 11.25C33.98 10.1 35 9.14 36.19 8.43L36.89 8.01L37.91 9.7L37.21 10.12C36.26 10.69 35.44 11.45 34.82 12.36Z" fill="#C0F5F9" fill-opacity="1.000000" fill-rule="nonzero"/>
		<path id="Vector" d="M38.39 16.73L36.42 16.73C36.42 15.61 36.61 14.5 36.99 13.44L38.84 14.11C38.54 14.95 38.39 15.84 38.39 16.73Z" fill="#C0F5F9" fill-opacity="1.000000" fill-rule="nonzero"/>
		<path id="Vector" d="M13.78 32.48C13.78 34.65 12.01 36.42 9.84 36.42C7.66 36.42 5.9 34.65 5.9 32.48C5.9 30.3 7.66 28.54 9.84 28.54C12.01 28.54 13.78 30.3 13.78 32.48Z" fill="#B3E4E8" fill-opacity="1.000000" fill-rule="evenodd"/>
		<path id="Vector" d="M8.85 22.64C8.85 24.27 7.53 25.59 5.9 25.59C4.27 25.59 2.95 24.27 2.95 22.64C2.95 21 4.27 19.68 5.9 19.68C7.53 19.68 8.85 21 8.85 22.64Z" fill="#C0F5F9" fill-opacity="1.000000" fill-rule="evenodd"/>
		<path id="Vector" d="M50.2 31.5C50.2 32.58 49.32 33.46 48.23 33.46C47.14 33.46 46.26 32.58 46.26 31.5C46.26 30.41 47.14 29.53 48.23 29.53C49.32 29.53 50.2 30.41 50.2 31.5Z" fill="#C0F5F9" fill-opacity="1.000000" fill-rule="evenodd"/>
		<path id="Vector" d="M31.5 50.81C31.84 50.81 32.18 50.69 32.42 50.47C32.67 50.24 32.81 49.94 32.81 49.62L32.81 48.43C32.81 48.12 32.67 47.82 32.42 47.59C32.18 47.37 31.84 47.25 31.5 47.25C31.15 47.25 30.81 47.37 30.57 47.59C30.32 47.82 30.18 48.12 30.18 48.43L30.18 49.62C30.18 49.94 30.32 50.24 30.57 50.47C30.81 50.69 31.15 50.81 31.5 50.81Z" fill="#29C3BE" fill-opacity="1.000000" fill-rule="nonzero"/>
		<path id="Vector" d="M28.87 52L28.87 50.81C28.87 50.5 28.73 50.2 28.49 49.97C28.24 49.75 27.91 49.62 27.56 49.62C27.21 49.62 26.88 49.75 26.63 49.97C26.38 50.2 26.25 50.5 26.25 50.81L26.25 52C26.25 52.32 26.38 52.62 26.63 52.84C26.88 53.07 27.21 53.19 27.56 53.19C27.91 53.19 28.24 53.07 28.49 52.84C28.73 52.62 28.87 52.32 28.87 52Z" fill="#29C3BE" fill-opacity="1.000000" fill-rule="nonzero"/>
		<path id="Vector" d="M35.43 49.62C35.08 49.62 34.75 49.75 34.5 49.97C34.26 50.2 34.12 50.5 34.12 50.81L34.12 52C34.12 52.32 34.26 52.62 34.5 52.84C34.75 53.07 35.08 53.19 35.43 53.19C35.78 53.19 36.11 53.07 36.36 52.84C36.61 52.62 36.75 52.32 36.75 52L36.75 50.81C36.75 50.5 36.61 50.2 36.36 49.97C36.11 49.75 35.78 49.62 35.43 49.62Z" fill="#29C3BE" fill-opacity="1.000000" fill-rule="nonzero"/>
		<path id="Vector" d="M34.12 54.38L32.81 54.38L32.81 53.19C32.81 52.88 32.67 52.57 32.42 52.35C32.18 52.13 31.84 52 31.5 52C31.15 52 30.81 52.13 30.57 52.35C30.32 52.57 30.18 52.88 30.18 53.19L30.18 54.38L28.87 54.38C28.52 54.38 28.19 54.51 27.94 54.73C27.7 54.95 27.56 55.26 27.56 55.57C27.56 55.89 27.7 56.19 27.94 56.41C28.19 56.64 28.52 56.76 28.87 56.76L34.12 56.76C34.47 56.76 34.8 56.64 35.05 56.41C35.29 56.19 35.43 55.89 35.43 55.57C35.43 55.26 35.29 54.95 35.05 54.73C34.8 54.51 34.47 54.38 34.12 54.38Z" fill="#29C3BE" fill-opacity="1.000000" fill-rule="nonzero"/>
		<path id="Vector" d="M20.67 41.34L18.7 41.34C18.18 41.34 17.68 41.13 17.31 40.76C16.94 40.39 16.73 39.89 16.73 39.37C16.73 38.59 17.04 37.84 17.59 37.28C18.15 36.73 18.9 36.42 19.68 36.42C20.47 36.42 21.22 36.73 21.77 37.28C22.32 37.84 22.64 38.59 22.64 39.37C22.64 39.89 22.43 40.39 22.06 40.76C21.69 41.13 21.19 41.34 20.67 41.34Z" fill="#F3AF3E" fill-opacity="1.000000" fill-rule="nonzero"/>
		<path id="Vector" d="M44.29 41.34L42.32 41.34C41.8 41.34 41.3 41.13 40.93 40.76C40.56 40.39 40.35 39.89 40.35 39.37C40.35 38.59 40.67 37.84 41.22 37.28C41.77 36.73 42.52 36.42 43.31 36.42C44.09 36.42 44.84 36.73 45.4 37.28C45.95 37.84 46.26 38.59 46.26 39.37C46.26 39.89 46.05 40.39 45.68 40.76C45.31 41.13 44.81 41.34 44.29 41.34Z" fill="#F3AF3E" fill-opacity="1.000000" fill-rule="nonzero"/>
		<path id="Vector" d="M31.5 32.48C30.97 32.48 30.47 32.27 30.1 31.9C29.73 31.53 29.53 31.03 29.53 30.51L29.53 28.54L33.46 28.54L33.46 30.51C33.46 31.03 33.26 31.53 32.89 31.9C32.52 32.27 32.02 32.48 31.5 32.48Z" fill="#5B3726" fill-opacity="1.000000" fill-rule="nonzero"/>
		<path id="Vector" d="M4.92 44.29L58.07 44.29L58.07 46.26L4.92 46.26L4.92 44.29Z" fill="#50559F" fill-opacity="1.000000" fill-rule="nonzero"/>
		<path id="Vector" d="M34.44 5.91L37.71 3.71L43.21 11.87L39.95 14.07L34.44 5.91Z" fill="#B9B9B9" fill-opacity="1.000000" fill-rule="nonzero"/>
	</g>
</svg>
