<svg width="63.000000" height="63.000000" viewBox="0 0 63 63" fill="none" xmlns="http://www.w3.org/2000/svg" xmlns:xlink="http://www.w3.org/1999/xlink">
	<desc>
			Created with Pixso.
	</desc>
	<defs>
		<clipPath id="clip30_1003">
			<rect id="dog_food_24x" width="63.000000" height="63.000000" fill="white" fill-opacity="0"/>
		</clipPath>
	</defs>
	<rect id="dog_food_24x" width="63.000000" height="63.000000" fill="#FFFFFF" fill-opacity="0"/>
	<g clip-path="url(#clip30_1003)">
		<path id="Vector" d="M56.99 29.53C57.15 28.75 57.12 27.95 56.9 27.19C56.68 26.43 56.29 25.74 55.75 25.16C55.2 24.59 54.53 24.15 53.78 23.89C53.04 23.63 52.24 23.56 51.46 23.67C51.06 23.2 50.52 22.87 49.92 22.72C49.32 22.57 48.69 22.62 48.12 22.85C47.48 21.85 46.6 21.04 45.55 20.49C44.51 19.93 43.34 19.66 42.16 19.69C42 19.26 41.76 18.87 41.43 18.55C41.1 18.23 40.7 17.99 40.27 17.85C39.83 17.71 39.37 17.68 38.92 17.75C38.47 17.82 38.04 17.99 37.67 18.25C36.02 16.65 33.8 15.75 31.5 15.75C29.19 15.75 26.97 16.65 25.32 18.25C24.95 17.99 24.52 17.82 24.07 17.75C23.62 17.68 23.16 17.71 22.72 17.85C22.29 17.99 21.89 18.23 21.56 18.55C21.23 18.87 20.99 19.26 20.83 19.69C19.65 19.66 18.48 19.93 17.44 20.49C16.39 21.04 15.51 21.85 14.87 22.85C14.3 22.62 13.67 22.57 13.07 22.72C12.47 22.87 11.93 23.2 11.53 23.67C10.75 23.56 9.95 23.64 9.21 23.89C8.46 24.15 7.79 24.59 7.25 25.16C6.7 25.74 6.31 26.43 6.09 27.19C5.87 27.95 5.84 28.75 6 29.53L7.87 30.51L56.1 30.51L56.99 29.53Z" fill="#A45E14" fill-opacity="1.000000" fill-rule="nonzero"/>
		<path id="Vector" d="M60.04 49.21L2.95 49.21L2.95 45.28L4.92 44.29L59.06 44.29L60.04 45.28L60.04 49.21Z" fill="#50559F" fill-opacity="1.000000" fill-rule="nonzero"/>
		<path id="Vector" d="M60.04 45.28L2.95 45.28L5.9 29.53L57.09 29.53L60.04 45.28Z" fill="#5D62B5" fill-opacity="1.000000" fill-rule="nonzero"/>
		<path id="Vector" d="M39.78 37.4C40.08 37.2 40.32 36.92 40.49 36.6C40.65 36.27 40.74 35.91 40.72 35.55C40.71 35.19 40.61 34.83 40.42 34.52C40.24 34.2 39.98 33.94 39.66 33.76C39.35 33.58 38.99 33.47 38.63 33.46C38.27 33.45 37.91 33.54 37.58 33.7C37.26 33.87 36.98 34.12 36.78 34.42C36.58 34.72 36.46 35.07 36.43 35.43L26.75 35.43C26.72 35.07 26.59 34.72 26.39 34.42C26.19 34.12 25.91 33.87 25.59 33.71C25.27 33.54 24.91 33.46 24.54 33.47C24.18 33.48 23.83 33.58 23.51 33.76C23.2 33.95 22.94 34.21 22.75 34.52C22.57 34.83 22.46 35.19 22.45 35.55C22.44 35.91 22.52 36.27 22.69 36.6C22.85 36.92 23.1 37.2 23.4 37.4C23.1 37.6 22.85 37.88 22.69 38.21C22.52 38.53 22.44 38.89 22.45 39.25C22.46 39.62 22.57 39.97 22.75 40.28C22.94 40.6 23.2 40.86 23.51 41.04C23.83 41.23 24.18 41.33 24.54 41.34C24.91 41.35 25.27 41.27 25.59 41.1C25.91 40.93 26.19 40.69 26.39 40.38C26.6 40.08 26.72 39.73 26.75 39.37L36.43 39.37C36.46 39.73 36.58 40.08 36.78 40.38C36.98 40.68 37.26 40.93 37.58 41.1C37.91 41.26 38.27 41.35 38.63 41.34C38.99 41.33 39.35 41.22 39.66 41.04C39.98 40.86 40.24 40.6 40.42 40.28C40.61 39.97 40.71 39.62 40.72 39.25C40.73 38.89 40.65 38.53 40.49 38.21C40.32 37.88 40.08 37.6 39.78 37.4Z" fill="#29C3BE" fill-opacity="1.000000" fill-rule="nonzero"/>
		<path id="Vector" d="M26.57 20.67C26.57 22.3 25.25 23.62 23.62 23.62C21.99 23.62 20.67 22.3 20.67 20.67C20.67 19.04 21.99 17.71 23.62 17.71C25.25 17.71 26.57 19.04 26.57 20.67Z" fill="#62B58F" fill-opacity="1.000000" fill-rule="evenodd"/>
		<path id="Vector" d="M30.51 22.64C30.51 24.27 29.19 25.59 27.56 25.59C25.93 25.59 24.6 24.27 24.6 22.64C24.6 21 25.93 19.68 27.56 19.68C29.19 19.68 30.51 21 30.51 22.64Z" fill="#F2726F" fill-opacity="1.000000" fill-rule="evenodd"/>
		<path id="Vector" d="M16.73 25.59C16.73 27.22 15.41 28.54 13.78 28.54C12.15 28.54 10.82 27.22 10.82 25.59C10.82 23.96 12.15 22.64 13.78 22.64C15.41 22.64 16.73 23.96 16.73 25.59Z" fill="#F2726F" fill-opacity="1.000000" fill-rule="evenodd"/>
		<path id="Vector" d="M52.17 25.59C52.17 27.22 50.84 28.54 49.21 28.54C47.58 28.54 46.26 27.22 46.26 25.59C46.26 23.96 47.58 22.64 49.21 22.64C50.84 22.64 52.17 23.96 52.17 25.59Z" fill="#62B58F" fill-opacity="1.000000" fill-rule="evenodd"/>
		<path id="Vector" d="M42.32 20.67C42.32 22.3 41 23.62 39.37 23.62C37.74 23.62 36.42 22.3 36.42 20.67C36.42 19.04 37.74 17.71 39.37 17.71C41 17.71 42.32 19.04 42.32 20.67Z" fill="#F2726F" fill-opacity="1.000000" fill-rule="evenodd"/>
	</g>
</svg>
