<svg width="63.000000" height="63.000000" viewBox="0 0 63 63" fill="none" xmlns="http://www.w3.org/2000/svg" xmlns:xlink="http://www.w3.org/1999/xlink">
	<desc>
			Created with Pixso.
	</desc>
	<defs>
		<clipPath id="clip30_944">
			<rect id="dog_training_24x" width="63.000000" height="63.000000" fill="white" fill-opacity="0"/>
		</clipPath>
	</defs>
	<rect id="dog_training_24x" width="63.000000" height="63.000000" fill="#FFFFFF" fill-opacity="0"/>
	<g clip-path="url(#clip30_944)">
		<path id="Vector" d="M36.75 39.69L26.25 39.69L27.57 38.65C29.35 37.25 29.89 34.81 28.87 32.81L28.71 32.44L30.35 31.95L32.92 31.95L34.28 32.44L34.12 32.81C33.1 34.81 33.64 37.25 35.43 38.65L36.75 39.69Z" fill="#FBB540" fill-opacity="1.000000" fill-rule="nonzero"/>
		<path id="Vector" d="M36.75 43.99L26.25 43.99L26.25 39.69L27.12 39.36L35.87 39.36L36.75 39.69L36.75 43.99Z" fill="#FBB540" fill-opacity="1.000000" fill-rule="nonzero"/>
		<path id="Vector" d="M30.35 31.95L28.71 32.44L28.87 32.81C29.22 33.51 29.4 34.28 29.37 35.06C30.78 35.42 32.26 35.36 33.62 34.87C33.63 34.16 33.8 33.45 34.12 32.81L34.28 32.44L32.92 31.95L30.35 31.95Z" fill="#EA9D2D" fill-opacity="1.000000" fill-rule="nonzero"/>
		<path id="Vector" d="M26.25 41.41L36.75 41.41L36.75 44.85L26.25 44.85L26.25 41.41Z" fill="#EA9D2D" fill-opacity="1.000000" fill-rule="nonzero"/>
		<path id="Vector" d="M26.25 39.37L36.75 39.37L36.75 49.87L26.25 49.87L26.25 39.37Z" fill="#5D62B5" fill-opacity="1.000000" fill-rule="nonzero"/>
		<path id="Vector" d="M26.25 42L36.75 42L36.75 44.62L26.25 44.62L26.25 42Z" fill="#50559F" fill-opacity="1.000000" fill-rule="nonzero"/>
		<path id="Vector" d="M26.25 47.25L36.75 47.25L36.75 49.87L26.25 49.87L26.25 47.25Z" fill="#50559F" fill-opacity="1.000000" fill-rule="nonzero"/>
		<path id="Vector" d="M18.37 47.25L44.62 47.25L44.62 57.75L18.37 57.75L18.37 47.25Z" fill="#5D62B5" fill-opacity="1.000000" fill-rule="nonzero"/>
		<path id="Vector" d="M19.73 50.01L21.54 50.01L21.54 57.74L19.73 57.74L19.73 50.01Z" fill="#50559F" fill-opacity="1.000000" fill-rule="nonzero"/>
		<path id="Vector" d="M23.35 50.01L25.16 50.01L25.16 57.74L23.35 57.74L23.35 50.01Z" fill="#50559F" fill-opacity="1.000000" fill-rule="nonzero"/>
		<path id="Vector" d="M37.83 50.01L39.64 50.01L39.64 57.74L37.83 57.74L37.83 50.01Z" fill="#50559F" fill-opacity="1.000000" fill-rule="nonzero"/>
		<path id="Vector" d="M41.45 50.01L43.26 50.01L43.26 57.74L41.45 57.74L41.45 50.01Z" fill="#50559F" fill-opacity="1.000000" fill-rule="nonzero"/>
		<path id="Vector" d="M19.73 11.31L44.17 11.31L44.17 14.75L19.73 14.75L19.73 11.31Z" fill="#FBB540" fill-opacity="1.000000" fill-rule="nonzero"/>
		<path id="Vector" d="M41.45 25.07L41.45 21.63L43.26 21.63C46.76 21.62 49.59 18.93 49.6 15.61L49.6 14.75L42.36 14.75L42.36 11.31L51.41 11.31C52.41 11.31 53.22 12.08 53.22 13.03L53.22 15.61C53.21 20.83 48.76 25.06 43.26 25.07L41.45 25.07Z" fill="#FBB540" fill-opacity="1.000000" fill-rule="nonzero"/>
		<path id="Vector" d="M21.54 25.07L21.54 21.63L19.73 21.63C16.23 21.62 13.4 18.93 13.39 15.61L13.39 14.75L20.63 14.75L20.63 11.31L11.58 11.31C10.58 11.31 9.77 12.08 9.77 13.03L9.77 15.61C9.78 20.83 14.23 25.06 19.73 25.07L21.54 25.07Z" fill="#FBB540" fill-opacity="1.000000" fill-rule="nonzero"/>
		<path id="Vector" d="M20.63 7.87L42.36 7.87L42.36 22.49C42.36 28.19 37.49 32.81 31.5 32.81C25.5 32.81 20.63 28.19 20.63 22.49L20.63 7.87Z" fill="#FBB540" fill-opacity="1.000000" fill-rule="nonzero"/>
		<path id="Vector" d="M20.63 7.87L42.36 7.87L42.36 13.03L20.63 13.03L20.63 7.87Z" fill="#FBB540" fill-opacity="1.000000" fill-rule="nonzero"/>
		<path id="Vector" d="M23.62 13.12L39.37 13.12L39.37 15.75L23.62 15.75L23.62 13.12Z" fill="#EA9D2D" fill-opacity="1.000000" fill-rule="nonzero"/>
	</g>
</svg>
