<svg width="63.000000" height="63.000000" viewBox="0 0 63 63" fill="none" xmlns="http://www.w3.org/2000/svg" xmlns:xlink="http://www.w3.org/1999/xlink">
	<desc>
			Created with Pixso.
	</desc>
	<defs>
		<clipPath id="clip30_894">
			<rect id="dog_collar_24x" width="63.000000" height="63.000000" fill="white" fill-opacity="0"/>
		</clipPath>
	</defs>
	<rect id="dog_collar_24x" width="63.000000" height="63.000000" fill="#FFFFFF" fill-opacity="0"/>
	<g clip-path="url(#clip30_894)">
		<path id="Vector" d="M30.51 30.51L32.48 30.51L32.48 35.43L30.51 35.43L30.51 30.51Z" fill="#CBCBCB" fill-opacity="1.000000" fill-rule="nonzero"/>
		<path id="Vector" d="M2.95 18.7L60.04 18.7L60.04 30.51L2.95 30.51L2.95 18.7Z" fill="#50559F" fill-opacity="1.000000" fill-rule="nonzero"/>
		<path id="Vector" d="M17.71 18.7L60.04 18.7L60.04 30.51L17.71 30.51C16.15 30.51 14.64 29.89 13.54 28.78C12.43 27.67 11.81 26.17 11.81 24.6C11.81 23.04 12.43 21.54 13.54 20.43C14.64 19.32 16.15 18.7 17.71 18.7Z" fill="#5D62B5" fill-opacity="1.000000" fill-rule="nonzero"/>
		<path id="Vector" d="M41.34 23.62L43.31 23.62L43.31 25.59L41.34 25.59L41.34 23.62Z" fill="#50559F" fill-opacity="1.000000" fill-rule="nonzero"/>
		<path id="Vector" d="M45.28 23.62L47.25 23.62L47.25 25.59L45.28 25.59L45.28 23.62Z" fill="#50559F" fill-opacity="1.000000" fill-rule="nonzero"/>
		<path id="Vector" d="M49.21 23.62L51.18 23.62L51.18 25.59L49.21 25.59L49.21 23.62Z" fill="#50559F" fill-opacity="1.000000" fill-rule="nonzero"/>
		<path id="Vector" d="M24.6 17.71L24.6 31.5L38.39 31.5L38.39 17.71L24.6 17.71ZM34.45 27.56L28.54 27.56L28.54 21.65L34.45 21.65L34.45 27.56Z" fill="#E4E4E2" fill-opacity="1.000000" fill-rule="nonzero"/>
		<path id="Vector" d="M38.39 39.37C38.39 40.73 37.98 42.07 37.22 43.2C36.47 44.33 35.39 45.21 34.13 45.74C32.87 46.26 31.49 46.39 30.15 46.13C28.81 45.86 27.59 45.21 26.62 44.24C25.66 43.28 25 42.05 24.74 40.71C24.47 39.38 24.61 37.99 25.13 36.73C25.65 35.47 26.53 34.4 27.67 33.64C28.8 32.88 30.13 32.48 31.5 32.48C33.32 32.48 35.08 33.21 36.37 34.5C37.66 35.79 38.39 37.54 38.39 39.37Z" fill="#F3AF3E" fill-opacity="1.000000" fill-rule="nonzero"/>
		<path id="Vector" d="M34.45 21.65L35.43 21.65L35.43 27.56L34.45 27.56L34.45 21.65Z" fill="#CBCBCB" fill-opacity="1.000000" fill-rule="nonzero"/>
		<path id="Vector" d="M23.62 18.7L24.6 18.7L24.6 30.51L23.62 30.51L23.62 18.7Z" fill="#50559F" fill-opacity="1.000000" fill-rule="nonzero"/>
	</g>
</svg>
