<svg width="76.000000" height="76.000000" viewBox="0 0 76 76" fill="none" xmlns="http://www.w3.org/2000/svg" xmlns:xlink="http://www.w3.org/1999/xlink">
	<desc>
			Created with Pixso.
	</desc>
	<defs>
		<clipPath id="clip45_822">
			<rect id="dog_house_24px" width="76.000000" height="76.000000" fill="white" fill-opacity="0"/>
		</clipPath>
	</defs>
	<rect id="dog_house_24px" width="76.000000" height="76.000000" fill="#FFFFFF" fill-opacity="0"/>
	<g clip-path="url(#clip45_822)">
		<path id="Vector" d="M26.6 53.2L19 53.2C18.3 53.2 17.73 53.76 17.73 54.46L17.73 62.06C17.73 62.76 18.3 63.33 19 63.33L26.6 63.33C27.29 63.33 27.86 62.76 27.86 62.06L27.86 54.46C27.86 53.76 27.29 53.2 26.6 53.2ZM25.33 60.8L20.26 60.8L20.26 55.73L25.33 55.73L25.33 60.8Z" fill="#5D62B5" fill-opacity="1.000000" fill-rule="nonzero"/>
		<path id="Vector" d="M44.33 39.26L31.66 39.26C30.26 39.26 29.13 40.4 29.13 41.8L29.13 46.86C29.13 48.26 30.26 49.4 31.66 49.4L44.33 49.4C45.73 49.4 46.86 48.26 46.86 46.86L46.86 41.8C46.86 40.4 45.73 39.26 44.33 39.26ZM44.33 43.06L39.26 43.06L39.26 41.8L44.33 41.8L44.33 43.06ZM36.73 41.8L36.73 43.06L31.66 43.06L31.66 41.8L36.73 41.8ZM31.66 45.6L36.73 45.6L36.73 46.86L31.66 46.86L31.66 45.6ZM39.26 46.86L39.26 45.6L44.33 45.6L44.33 46.86L39.26 46.86Z" fill="#5D62B5" fill-opacity="1.000000" fill-rule="nonzero"/>
		<path id="Vector" d="M69.55 64.68C69.24 63.02 68.27 61.55 66.86 60.6C65.45 59.66 63.72 59.32 62.06 59.66L62.06 37.25L64.33 39.52C65.88 41.07 68.38 41.07 69.92 39.52C71.47 37.98 71.47 35.48 69.92 33.93L62.06 26.07L62.06 10.13C63.46 10.13 64.6 8.99 64.6 7.6L64.6 5.06C64.6 3.66 63.46 2.53 62.06 2.53L49.39 2.53C48 2.53 46.86 3.66 46.86 5.06L46.86 7.6C46.86 8.99 48 10.13 49.39 10.13L49.39 13.4L40.68 4.69C39.18 3.26 36.81 3.26 35.31 4.69L6.07 33.93C4.52 35.48 4.52 37.98 6.07 39.52C7.61 41.07 10.11 41.07 11.66 39.52L13.93 37.25L13.93 63.81C12.55 62.21 10.32 61.64 8.34 62.38C6.36 63.12 5.05 65.02 5.06 67.13C2.26 67.13 0 69.4 0 72.2C0 72.89 0.56 73.46 1.26 73.46L74.73 73.46C75.43 73.46 76 72.89 76 72.2C75.99 68.45 73.26 65.26 69.55 64.68ZM58.25 62.11C58.25 62.1 58.26 62.08 58.26 62.06L58.26 54.46C58.26 53.76 57.69 53.2 57 53.2L49.39 53.2C48.7 53.2 48.13 53.76 48.13 54.46L48.13 62.06C48.13 62.76 48.7 63.33 49.39 63.33L57 63.33C57.23 63.32 57.45 63.25 57.64 63.12C57.22 63.98 57 64.91 57 65.86L57 65.99C54.51 66.5 52.58 68.45 52.07 70.93L46.86 70.93L46.86 51.93C46.86 51.23 46.29 50.66 45.6 50.66L30.39 50.66C29.7 50.66 29.13 51.23 29.13 51.93L29.13 70.93L21.42 70.93C20.95 68.21 19.06 65.96 16.46 65.04L16.46 35.46L59.53 35.46L59.53 60.83C59.04 61.19 58.61 61.63 58.25 62.11ZM55.73 55.73L55.73 60.8L50.66 60.8L50.66 55.73L55.73 55.73ZM49.39 5.06L62.06 5.06L62.06 7.6L49.39 7.6L49.39 5.06ZM51.93 10.13L59.53 10.13L59.53 23.54L51.93 15.94L51.93 10.13ZM9.87 37.73C9.31 38.29 8.41 38.29 7.86 37.73C7.3 37.18 7.3 36.28 7.86 35.72L37.1 6.48C37.59 5.99 38.4 5.99 38.89 6.48L68.13 35.72C68.69 36.28 68.69 37.18 68.13 37.73C67.58 38.29 66.68 38.29 66.12 37.73L40.68 12.29C39.2 10.81 36.79 10.81 35.31 12.29L9.87 37.73ZM37.1 14.08C37.59 13.59 38.4 13.59 38.89 14.08L57.74 32.93L18.25 32.93L37.1 14.08ZM2.87 70.93C3.54 69.78 4.98 69.34 6.17 69.93C6.66 70.17 7.24 70.08 7.63 69.69C8.01 69.31 8.11 68.72 7.87 68.24C7.69 67.89 7.6 67.51 7.6 67.13C7.59 65.89 8.48 64.83 9.7 64.63C10.92 64.42 12.11 65.13 12.51 66.3C12.69 66.83 13.2 67.17 13.75 67.15C13.81 67.15 13.87 67.14 13.93 67.13C16.24 67.13 18.25 68.69 18.84 70.93L2.87 70.93ZM31.66 70.93L31.66 53.2L44.33 53.2L44.33 70.93L31.66 70.93ZM54.68 70.93C55.2 69.43 56.6 68.42 58.18 68.4C58.23 68.4 58.35 68.41 58.4 68.42C58.8 68.43 59.18 68.25 59.43 67.94C59.69 67.63 59.77 67.21 59.67 66.83C59.58 66.51 59.53 66.19 59.53 65.86C59.53 63.76 61.23 62.06 63.33 62.06C65.43 62.06 67.13 63.76 67.13 65.86C67.13 66.56 67.7 67.13 68.39 67.13C70.7 67.13 72.72 68.69 73.3 70.93L54.68 70.93Z" fill="#5D62B5" fill-opacity="1.000000" fill-rule="nonzero"/>
		<path id="Vector" d="M35.46 57L32.93 57L32.93 59.53L34.19 59.53L34.19 62.06L32.93 62.06L32.93 64.6L35.46 64.6C36.16 64.6 36.73 64.03 36.73 63.33L36.73 58.26C36.73 57.56 36.16 57 35.46 57Z" fill="#5D62B5" fill-opacity="1.000000" fill-rule="nonzero"/>
	</g>
</svg>
