<svg width="76.000000" height="76.000000" viewBox="0 0 76 76" fill="none" xmlns="http://www.w3.org/2000/svg" xmlns:xlink="http://www.w3.org/1999/xlink">
	<desc>
			Created with Pixso.
	</desc>
	<defs>
		<clipPath id="clip32_859">
			<rect id="dog_duckling_24x" width="76.000000" height="76.000000" fill="white" fill-opacity="0"/>
		</clipPath>
	</defs>
	<rect id="dog_duckling_24x" width="76.000000" height="76.000000" fill="#FFFFFF" fill-opacity="0"/>
	<g clip-path="url(#clip32_859)">
		<path id="Vector" d="M74.24 15.95C73.83 15.29 73.11 14.9 72.33 14.9L57.92 14.9C56.49 6.45 49.15 0 40.31 0C30.45 0 22.42 8.02 22.42 17.88C22.42 26.34 28.6 31.24 30.92 33.09C31.08 33.22 31.23 33.33 31.35 33.43C31.29 34.41 31 36.61 29.62 37.58C28.62 38.28 27.1 38.28 25.1 37.59C23.34 36.97 21.69 35.9 20.17 34.38L11.32 25.53C10.68 24.89 9.81 24.56 8.9 24.63C8 24.69 7.17 25.15 6.63 25.88C4.33 28.99 0.61 35.59 1.56 44.73C1.57 44.99 1.73 51.07 4.01 57.85C7.08 67.04 12.59 73.04 19.92 75.21C21.7 75.74 23.66 76 25.91 76L36.13 76C40.7 76 45.12 74.67 48.91 72.17L49.29 71.91C59.93 64.76 63.77 51.1 58.24 40.12C56.6 36.86 54.34 34.27 51.51 32.4C52.08 31.69 52.75 30.8 53.44 29.8L61.4 29.8C63.17 29.8 64.8 29.34 66.13 28.49C70.15 25.89 73.01 20.88 74.35 18.12C74.69 17.42 74.65 16.61 74.24 15.95ZM55.58 41.46C60.44 51.1 57.02 63.13 47.58 69.48L47.27 69.68C43.96 71.86 40.11 73.01 36.13 73.01L25.91 73.01C23.95 73.01 22.27 72.8 20.77 72.35C5.27 67.76 4.55 44.9 4.53 44.55C3.68 36.28 6.98 30.41 9.03 27.65L7.83 26.77L9.21 27.63L18.07 36.49C19.9 38.32 21.94 39.64 24.12 40.4C27.08 41.43 29.5 41.3 31.33 40.02C34 38.15 34.33 34.54 34.35 33.08C34.36 32.49 34.12 31.93 33.7 31.52C33.5 31.34 33.18 31.08 32.77 30.75C30.57 29 25.4 24.9 25.4 17.88C25.4 9.66 32.09 2.97 40.3 2.97C47.96 2.97 54.28 8.78 55.11 16.22L55.14 16.52C55.18 16.97 55.21 17.42 55.21 17.88C55.21 18.34 55.15 18.82 55.07 19.31C55.05 19.4 55.04 19.49 55.02 19.58C54.82 20.63 54.46 21.73 53.97 22.85C53.96 22.87 53.95 22.89 53.94 22.91C53.44 24.05 52.82 25.21 52.13 26.34C52.07 26.43 52.01 26.53 51.95 26.62C50.91 28.29 49.75 29.88 48.6 31.25C48.2 31.72 48.03 32.34 48.13 32.95C48.24 33.58 48.62 34.12 49.16 34.44C51.88 36.05 54.04 38.41 55.58 41.46ZM64.51 25.98C63.67 26.53 62.59 26.82 61.4 26.82L55.32 26.82C55.54 26.43 55.75 26.04 55.96 25.63C55.98 25.59 56 25.55 56.02 25.51C56.18 25.19 56.34 24.87 56.49 24.54C56.53 24.45 56.57 24.36 56.61 24.27C56.73 24.01 56.84 23.75 56.94 23.48C56.99 23.36 57.05 23.24 57.09 23.12C57.18 22.9 57.25 22.68 57.33 22.46C57.38 22.31 57.44 22.16 57.48 22.02C57.52 21.9 57.55 21.78 57.58 21.66C57.74 21.12 57.87 20.6 57.97 20.09C57.98 20.04 57.99 19.98 58 19.93C58.05 19.67 58.07 19.43 58.1 19.18C58.11 19.08 58.13 18.99 58.14 18.89C58.17 18.55 58.19 18.21 58.19 17.88L71.13 17.88C69.89 20.2 67.53 24.04 64.51 25.98Z" fill="#5D62B5" fill-opacity="1.000000" fill-rule="nonzero"/>
		<path id="Vector" d="M50.74 14.9C50.74 10.79 47.4 7.45 43.29 7.45C39.18 7.45 35.84 10.79 35.84 14.9C35.84 19.01 39.18 22.35 43.29 22.35C47.4 22.35 50.74 19.01 50.74 14.9ZM38.82 14.9C38.82 12.43 40.82 10.43 43.29 10.43C45.34 10.43 47.06 11.83 47.58 13.72C47.18 13.53 46.74 13.41 46.27 13.41C44.62 13.41 43.29 14.74 43.29 16.39C43.29 17.55 43.96 18.55 44.94 19.04C44.43 19.25 43.87 19.37 43.29 19.37C40.82 19.37 38.82 17.36 38.82 14.9Z" fill="#5D62B5" fill-opacity="1.000000" fill-rule="nonzero"/>
		<path id="Vector" d="M40.12 44.04C37.73 42.74 34.8 42.96 31.39 44.69C27.91 46.46 23.93 47.82 19.2 48.88L18.64 49C17.95 49.16 17.36 49.6 17.04 50.22C16.71 50.84 16.67 51.56 16.93 52.21C18.18 55.34 22.99 65.54 32.79 65.58C32.91 65.59 33.14 65.61 33.45 65.61C34.91 65.61 38.18 65.31 40.86 62.89C43.46 60.56 44.78 56.95 44.78 52.17L44.77 52.01C44.74 51.77 44.1 46.2 40.12 44.04ZM38.89 60.65C36.41 62.91 33.04 62.61 33.02 62.61L32.86 62.6C25.45 62.6 21.37 54.99 19.97 51.76C24.89 50.66 29.07 49.21 32.74 47.35C35.21 46.09 37.21 45.85 38.69 46.65C41.12 47.96 41.72 51.71 41.8 52.26C41.78 56.1 40.8 58.92 38.89 60.65Z" fill="#5D62B5" fill-opacity="1.000000" fill-rule="nonzero"/>
	</g>
</svg>
