<svg width="76.000000" height="76.000000" viewBox="0 0 76 76" fill="none" xmlns="http://www.w3.org/2000/svg" xmlns:xlink="http://www.w3.org/1999/xlink">
	<desc>
			Created with Pixso.
	</desc>
	<defs>
		<clipPath id="clip45_792">
			<rect id="dog_food_bowl_24x" width="76.000000" height="76.000000" fill="white" fill-opacity="0"/>
		</clipPath>
	</defs>
	<rect id="dog_food_bowl_24x" width="76.000000" height="76.000000" fill="#FFFFFF" fill-opacity="0"/>
	<g clip-path="url(#clip45_792)">
		<path id="Vector" d="M67.13 8.49L67.13 1.26C67.13 0.56 66.56 0 65.86 0L25.33 0C24.63 0 24.06 0.56 24.06 1.26L24.06 8.54L16.62 22.19C16.51 22.37 16.46 22.58 16.46 22.79L16.46 49.39L18.99 49.39L18.99 23.12L26.08 10.13L63.73 10.13L57.15 22.19C57.05 22.37 56.99 22.58 56.99 22.79L56.99 68.39L46.86 68.39L46.86 70.93L69.66 70.93C73.16 70.92 75.99 68.09 75.99 64.6L75.99 22.79C75.99 22.55 75.93 22.32 75.8 22.11L67.13 8.49ZM26.59 7.6L26.59 2.53L64.59 2.53L64.59 7.6L26.59 7.6ZM73.46 64.6C73.46 66.69 71.76 68.39 69.66 68.39L59.53 68.39L59.53 23.12L65.94 11.35L73.46 23.16L73.46 64.6Z" fill="#5D62B5" fill-opacity="1.000000" fill-rule="nonzero"/>
		<path id="Vector" d="M18.25 53.53C17.68 53.31 17.07 53.2 16.46 53.2C14.15 53.2 12.14 54.76 11.56 57L11.39 57C8.6 57 6.33 59.26 6.33 62.06L5.06 62.06C4.52 62.06 4.03 62.41 3.86 62.93L0.06 74.33C-0.07 74.71 0 75.14 0.23 75.47C0.47 75.8 0.85 76 1.26 76L44.33 76C44.74 76 45.12 75.8 45.36 75.47C45.59 75.14 45.66 74.71 45.53 74.33L41.73 62.93C41.56 62.41 41.07 62.06 40.53 62.06L39.26 62.06C39.26 59.26 36.99 57 34.19 57L34.03 57C33.45 54.76 31.44 53.2 29.13 53.2C28.52 53.2 27.91 53.31 27.34 53.53C26.5 51.78 24.73 50.66 22.79 50.66C20.85 50.66 19.09 51.78 18.25 53.53ZM39.62 64.6L42.57 73.46L3.02 73.46L5.97 64.6L39.62 64.6ZM25.3 55.56C25.33 56.04 25.64 56.47 26.1 56.65C26.55 56.83 27.06 56.73 27.42 56.4C28.16 55.72 29.23 55.53 30.15 55.94C31.08 56.34 31.67 57.26 31.66 58.26C31.66 58.96 32.23 59.53 32.93 59.53L34.19 59.53C35.59 59.53 36.73 60.66 36.73 62.06L8.86 62.06C8.86 60.66 10 59.53 11.39 59.53L12.66 59.53C13.36 59.53 13.93 58.96 13.93 58.26C13.92 57.26 14.52 56.34 15.44 55.94C16.36 55.54 17.43 55.72 18.17 56.4C18.52 56.73 19.04 56.83 19.49 56.65C19.94 56.47 20.25 56.04 20.29 55.56C20.37 54.23 21.47 53.2 22.79 53.2C24.12 53.2 25.22 54.23 25.3 55.56L25.3 55.56Z" fill="#5D62B5" fill-opacity="1.000000" fill-rule="nonzero"/>
		<path id="Vector" d="M31.66 30.4L34.19 30.4L34.19 32.93L31.66 32.93L31.66 30.4Z" fill="#5D62B5" fill-opacity="1.000000" fill-rule="nonzero"/>
		<path id="Vector" d="M44.33 30.4L46.86 30.4L46.86 32.93L44.33 32.93L44.33 30.4Z" fill="#5D62B5" fill-opacity="1.000000" fill-rule="nonzero"/>
		<path id="Vector" d="M50.63 15.5L45.12 20.26L33.99 20.26L28 15.47C27.49 15.07 26.77 15.11 26.31 15.57C24.82 17.05 24.01 19.08 24.06 21.19C24.12 23.29 25.03 25.27 26.59 26.68L26.59 40.53C26.59 47.52 32.27 53.2 39.26 53.2C46.26 53.2 51.93 47.52 51.93 40.53L51.93 26.84C53.44 25.44 54.34 23.51 54.45 21.45C54.58 19.3 53.83 17.19 52.39 15.6C51.92 15.1 51.14 15.06 50.63 15.5ZM26.6 21.28C26.55 20.21 26.82 19.15 27.4 18.24L31.3 21.37L28.09 24.58C27.21 23.7 26.68 22.53 26.6 21.28ZM39.26 50.66C37.89 50.66 36.73 49.79 36.73 48.76C36.73 47.73 37.89 46.86 39.26 46.86C40.63 46.86 41.79 47.73 41.79 48.76C41.79 49.79 40.63 50.66 39.26 50.66ZM49.39 40.53C49.39 44.17 47.43 47.53 44.26 49.33C44.3 49.14 44.32 48.95 44.33 48.76C44.14 46.15 41.88 44.17 39.26 44.33C36.64 44.17 34.38 46.15 34.19 48.76C34.2 48.95 34.22 49.14 34.26 49.33C31.09 47.53 29.13 44.17 29.13 40.53L29.13 27.12L33.45 22.8L45.07 22.8L47.6 25.33L45.59 25.33C42.1 25.33 39.26 28.16 39.26 31.66C39.26 35.16 42.1 38 45.59 38L49.39 38L49.39 40.53ZM49.39 35.46L45.59 35.46C43.5 35.46 41.79 33.76 41.79 31.66C41.79 29.56 43.5 27.86 45.59 27.86L49.39 27.86L49.39 35.46ZM50.51 24.65L47.45 21.6L51.25 18.32C51.75 19.23 51.98 20.27 51.92 21.31C51.85 22.55 51.35 23.73 50.51 24.65Z" fill="#5D62B5" fill-opacity="1.000000" fill-rule="nonzero"/>
		<path id="Vector" d="M69.66 55.73L63.33 55.73C62.63 55.73 62.06 56.3 62.06 57L62.06 62.06C62.06 62.76 62.63 63.33 63.33 63.33L69.66 63.33C70.36 63.33 70.93 62.76 70.93 62.06L70.93 57C70.93 56.3 70.36 55.73 69.66 55.73ZM68.39 60.8L64.59 60.8L64.59 58.26L68.39 58.26L68.39 60.8Z" fill="#5D62B5" fill-opacity="1.000000" fill-rule="nonzero"/>
		<path id="Vector" d="M62.06 50.66L68.39 50.66L68.39 53.2L62.06 53.2L62.06 50.66Z" fill="#5D62B5" fill-opacity="1.000000" fill-rule="nonzero"/>
		<path id="Vector" d="M62.06 45.6L70.93 45.6L70.93 48.13L62.06 48.13L62.06 45.6Z" fill="#5D62B5" fill-opacity="1.000000" fill-rule="nonzero"/>
		<path id="Vector" d="M46.86 63.33L54.46 63.33L54.46 65.86L46.86 65.86L46.86 63.33Z" fill="#5D62B5" fill-opacity="1.000000" fill-rule="nonzero"/>
		<path id="Vector" d="M46.86 58.26L54.46 58.26L54.46 60.8L46.86 60.8L46.86 58.26Z" fill="#5D62B5" fill-opacity="1.000000" fill-rule="nonzero"/>
		<path id="Vector" d="M62.06 40.53L70.93 40.53L70.93 43.06L62.06 43.06L62.06 40.53Z" fill="#5D62B5" fill-opacity="1.000000" fill-rule="nonzero"/>
		<path id="Vector" d="M62.06 35.46L65.86 35.46L65.86 38L62.06 38L62.06 35.46Z" fill="#5D62B5" fill-opacity="1.000000" fill-rule="nonzero"/>
		<path id="Vector" d="M68.39 35.46L70.93 35.46L70.93 38L68.39 38L68.39 35.46Z" fill="#5D62B5" fill-opacity="1.000000" fill-rule="nonzero"/>
		<path id="Vector" d="M62.06 22.8L70.93 22.8L70.93 25.33L62.06 25.33L62.06 22.8Z" fill="#5D62B5" fill-opacity="1.000000" fill-rule="nonzero"/>
		<path id="Vector" d="M62.06 27.86L70.93 27.86L70.93 30.39L62.06 30.39L62.06 27.86Z" fill="#5D62B5" fill-opacity="1.000000" fill-rule="nonzero"/>
	</g>
</svg>
