<svg width="73.000000" height="76.000000" viewBox="0 0 73 76" fill="none" xmlns="http://www.w3.org/2000/svg" xmlns:xlink="http://www.w3.org/1999/xlink">
	<desc>
			Created with Pixso.
	</desc>
	<defs/>
	<path id="Vector" d="M72.24 15.95C71.83 15.29 71.11 14.9 70.33 14.9L55.92 14.9C54.49 6.45 47.15 0 38.31 0C28.45 0 20.42 8.02 20.42 17.88C20.42 26.34 26.6 31.24 28.92 33.09C29.08 33.22 29.23 33.33 29.35 33.43C29.29 34.41 29 36.61 27.62 37.58C26.62 38.28 25.1 38.28 23.1 37.59C21.34 36.97 19.69 35.9 18.17 34.38L9.32 25.53C8.68 24.89 7.81 24.56 6.9 24.63C6 24.69 5.17 25.15 4.63 25.88C2.33 28.99 -1.39 35.59 -0.44 44.73C-0.43 44.99 -0.27 51.07 2.01 57.85C5.08 67.04 10.59 73.04 17.92 75.21C19.7 75.74 21.66 76 23.91 76L34.13 76C38.7 76 43.12 74.67 46.91 72.17L47.29 71.91C57.93 64.76 61.77 51.1 56.24 40.12C54.6 36.86 52.34 34.27 49.51 32.4C50.08 31.69 50.75 30.8 51.44 29.8L59.4 29.8C61.17 29.8 62.8 29.34 64.13 28.49C68.15 25.89 71.01 20.88 72.35 18.12C72.69 17.42 72.65 16.61 72.24 15.95ZM53.58 41.46C58.44 51.1 55.02 63.13 45.58 69.48L45.27 69.68C41.96 71.86 38.11 73.01 34.13 73.01L23.91 73.01C21.95 73.01 20.27 72.8 18.77 72.35C3.27 67.76 2.55 44.9 2.53 44.55C1.68 36.28 4.98 30.41 7.03 27.65L5.83 26.77L7.21 27.63L16.07 36.49C17.9 38.32 19.94 39.64 22.12 40.4C25.08 41.43 27.5 41.3 29.33 40.02C32 38.15 32.33 34.54 32.35 33.08C32.36 32.49 32.12 31.93 31.7 31.52C31.5 31.34 31.18 31.08 30.77 30.75C28.57 29 23.4 24.9 23.4 17.88C23.4 9.66 30.09 2.97 38.3 2.97C45.96 2.97 52.28 8.78 53.11 16.22L53.14 16.52C53.18 16.97 53.21 17.42 53.21 17.88C53.21 18.34 53.15 18.82 53.07 19.31C53.05 19.4 53.04 19.49 53.02 19.58C52.82 20.63 52.46 21.73 51.97 22.85C51.96 22.87 51.95 22.89 51.94 22.91C51.44 24.05 50.82 25.21 50.13 26.34C50.07 26.43 50.01 26.53 49.95 26.62C48.91 28.29 47.75 29.88 46.6 31.25C46.2 31.72 46.03 32.34 46.13 32.95C46.24 33.58 46.62 34.12 47.16 34.44C49.88 36.05 52.04 38.41 53.58 41.46ZM62.51 25.98C61.67 26.53 60.59 26.82 59.4 26.82L53.32 26.82C53.54 26.43 53.75 26.04 53.96 25.63C53.98 25.59 54 25.55 54.02 25.51C54.18 25.19 54.34 24.87 54.49 24.54C54.53 24.45 54.57 24.36 54.61 24.27C54.73 24.01 54.84 23.75 54.94 23.48C54.99 23.36 55.05 23.24 55.09 23.12C55.18 22.9 55.25 22.68 55.33 22.46C55.38 22.31 55.44 22.16 55.48 22.02C55.52 21.9 55.55 21.78 55.58 21.66C55.74 21.12 55.87 20.6 55.97 20.09C55.98 20.04 55.99 19.98 56 19.93C56.05 19.67 56.07 19.43 56.1 19.18C56.11 19.08 56.13 18.99 56.14 18.89C56.17 18.55 56.19 18.21 56.19 17.88L69.13 17.88C67.89 20.2 65.53 24.04 62.51 25.98Z" fill="#5D62B5" fill-opacity="1.000000" fill-rule="nonzero"/>
	<path id="Vector" d="M48.74 14.9C48.74 10.79 45.4 7.45 41.29 7.45C37.18 7.45 33.84 10.79 33.84 14.9C33.84 19.01 37.18 22.35 41.29 22.35C45.4 22.35 48.74 19.01 48.74 14.9ZM36.82 14.9C36.82 12.43 38.82 10.43 41.29 10.43C43.34 10.43 45.06 11.83 45.58 13.72C45.18 13.53 44.74 13.41 44.27 13.41C42.62 13.41 41.29 14.74 41.29 16.39C41.29 17.55 41.96 18.55 42.94 19.04C42.43 19.25 41.87 19.37 41.29 19.37C38.82 19.37 36.82 17.36 36.82 14.9Z" fill="#5D62B5" fill-opacity="1.000000" fill-rule="nonzero"/>
	<path id="Vector" d="M38.12 44.04C35.73 42.74 32.8 42.96 29.39 44.69C25.91 46.46 21.93 47.82 17.2 48.88L16.64 49C15.95 49.16 15.36 49.6 15.04 50.22C14.71 50.84 14.67 51.56 14.93 52.21C16.18 55.34 20.99 65.54 30.79 65.58C30.91 65.59 31.14 65.61 31.45 65.61C32.91 65.61 36.18 65.31 38.86 62.89C41.46 60.56 42.78 56.95 42.78 52.17L42.77 52.01C42.74 51.77 42.1 46.2 38.12 44.04ZM36.89 60.65C34.41 62.91 31.04 62.61 31.02 62.61L30.86 62.6C23.45 62.6 19.37 54.99 17.97 51.76C22.89 50.66 27.07 49.21 30.74 47.35C33.21 46.09 35.21 45.85 36.69 46.65C39.12 47.96 39.72 51.71 39.8 52.26C39.78 56.1 38.8 58.92 36.89 60.65Z" fill="#5D62B5" fill-opacity="1.000000" fill-rule="nonzero"/>
</svg>
