<svg width="174.000000" height="41.000000" viewBox="0 0 174 41" fill="none" xmlns="http://www.w3.org/2000/svg" xmlns:xlink="http://www.w3.org/1999/xlink">
	<desc>
			Created with Pixso.
	</desc>
	<defs/>
	<path id="Vector" d="M50.3921 11.5514L54.7869 11.5514L54.7869 29.8887L50.3921 29.8887L50.3921 11.5514ZM56.5303 22.965C56.5303 18.4298 59.2256 15.7238 63.386 15.7238C67.5464 15.7238 70.2419 18.4298 70.2419 22.965C70.2419 27.5002 67.605 30.2213 63.386 30.2213C59.167 30.2213 56.5303 27.5757 56.5303 22.965ZM65.8325 22.965C65.8325 20.4706 64.8804 19.0042 63.386 19.0042C61.8918 19.0042 60.9543 20.5159 60.9543 22.965C60.9543 25.414 61.8772 26.8955 63.386 26.8955C64.895 26.8955 65.8325 25.5047 65.8325 22.9801L65.8325 22.965ZM71.8972 30.7806L76.1165 30.7806C76.3171 31.2409 76.6565 31.6221 77.0842 31.8672C77.5117 32.1124 78.0046 32.2085 78.4895 32.1412C80.1597 32.1412 81.0386 31.2039 81.0386 29.8433L81.0386 27.3036L80.9507 27.3036C80.6006 28.082 80.0322 28.7343 79.3193 29.1762C78.6064 29.6181 77.7817 29.8294 76.9514 29.7829C73.7432 29.7829 71.6189 27.2583 71.6189 22.9196C71.6189 18.5809 73.6406 15.8447 77.01 15.8447C77.8665 15.81 78.7126 16.0463 79.4351 16.5218C80.1577 16.9974 80.7224 17.6894 81.0532 18.5053L81.0532 15.9807L85.448 15.9807L85.448 29.7375C85.448 33.0482 82.6206 35.1042 78.4456 35.1042C74.5635 35.1042 72.1465 33.3052 71.8972 30.7957L71.8972 30.7806ZM81.0532 22.9498C81.0532 20.7427 80.0718 19.3519 78.5188 19.3519C76.9661 19.3519 76.0137 20.7276 76.0137 22.9498C76.0137 25.1721 76.9514 26.4268 78.5188 26.4268C80.0864 26.4268 81.0532 25.2023 81.0532 22.965L81.0532 22.9498ZM87.1033 22.9498C87.1033 18.4146 89.7988 15.7086 93.9592 15.7086C98.1196 15.7086 100.83 18.4146 100.83 22.9498C100.83 27.485 98.1929 30.2062 93.9592 30.2062C89.7256 30.2062 87.1033 27.5757 87.1033 22.965L87.1033 22.9498ZM96.4058 22.9498C96.4058 20.4555 95.4534 18.9891 93.9592 18.9891C92.4651 18.9891 91.6006 20.5159 91.6006 22.9801C91.6006 25.4442 92.5237 26.9106 94.0178 26.9106C95.512 26.9106 96.4058 25.5047 96.4058 22.9801L96.4058 22.9498ZM102.5 12.6852C102.488 12.2273 102.609 11.7762 102.846 11.389C103.083 11.0019 103.427 10.6961 103.832 10.5105C104.238 10.325 104.688 10.2679 105.125 10.3466C105.563 10.4253 105.968 10.6362 106.289 10.9526C106.609 11.2689 106.832 11.6765 106.928 12.1237C107.025 12.5708 106.99 13.0374 106.829 13.4643C106.668 13.8911 106.388 14.259 106.024 14.5213C105.66 14.7836 105.229 14.9285 104.785 14.9376C104.491 14.9585 104.196 14.9164 103.918 14.8139C103.64 14.7114 103.386 14.5507 103.172 14.342C102.957 14.1333 102.787 13.8811 102.671 13.6012C102.555 13.3213 102.497 13.0197 102.5 12.7154L102.5 12.6852ZM102.5 16.011L106.895 16.011L106.895 29.8887L102.5 29.8887L102.5 16.011ZM122.848 22.9498C122.848 27.485 120.899 30.0701 117.559 30.0701C116.703 30.1268 115.85 29.9108 115.117 29.4511C114.383 28.9915 113.804 28.3105 113.458 27.5002L113.37 27.5002L113.37 34.3332L108.975 34.3332L108.975 15.9807L113.37 15.9807L113.37 18.46L113.458 18.46C113.788 17.6363 114.356 16.9375 115.084 16.4587C115.813 15.98 116.667 15.7445 117.53 15.7842C120.899 15.8447 122.906 18.4449 122.906 22.9801L122.848 22.9498ZM118.453 22.9498C118.453 20.7427 117.471 19.3368 115.933 19.3368C114.395 19.3368 113.414 20.7578 113.399 22.9498C113.384 25.1418 114.395 26.5478 115.933 26.5478C117.471 26.5478 118.453 25.1721 118.453 22.9801L118.453 22.9498ZM130.392 15.6935C134.04 15.6935 136.252 17.4774 136.354 20.3345L132.355 20.3345C132.355 19.3519 131.564 18.7321 130.348 18.7321C129.132 18.7321 128.59 19.2159 128.59 19.9264C128.59 20.6369 129.074 20.8636 130.055 21.0753L132.868 21.6649C135.549 22.2544 136.691 23.3731 136.691 25.4744C136.691 28.3467 134.157 30.191 130.421 30.191C126.686 30.191 124.24 28.3467 124.049 25.5198L128.283 25.5198C128.415 26.5478 129.206 27.1525 130.495 27.1525C131.784 27.1525 132.37 26.7141 132.37 25.9884C132.37 25.2628 131.96 25.1116 130.905 24.8849L128.371 24.3255C125.748 23.7662 124.371 22.33 124.371 20.2136C124.401 17.4925 126.759 15.7238 130.392 15.7238L130.392 15.6935ZM151.355 29.8585L147.122 29.8585L147.122 27.2734L147.034 27.2734C146.801 28.1413 146.288 28.901 145.579 29.4262C144.87 29.9515 144.008 30.2107 143.137 30.1608C142.469 30.2 141.801 30.0908 141.178 29.8406C140.555 29.5905 139.991 29.2052 139.524 28.7108C139.057 28.2163 138.699 27.6243 138.473 26.9747C138.248 26.3251 138.159 25.6331 138.215 24.9453L138.215 15.9807L142.61 15.9807L142.61 23.9022C142.61 25.55 143.43 26.4268 144.792 26.4268C145.112 26.4275 145.428 26.3577 145.719 26.2221C146.01 26.0865 146.27 25.8882 146.481 25.6405C146.692 25.3929 146.849 25.1015 146.942 24.7861C147.034 24.4707 147.061 24.1384 147.019 23.8115L147.019 15.9807L151.414 15.9807L151.355 29.8585ZM153.479 15.9807L157.728 15.9807L157.728 18.6565L157.816 18.6565C158.049 17.8001 158.551 17.0476 159.243 16.5169C159.935 15.9863 160.777 15.7073 161.639 15.7238C162.516 15.6513 163.387 15.9221 164.079 16.4823C164.772 17.0426 165.234 17.8511 165.375 18.7472L165.463 18.7472C165.729 17.8416 166.279 17.053 167.027 16.5056C167.775 15.9582 168.678 15.6831 169.594 15.7238C170.191 15.703 170.787 15.8123 171.341 16.0445C171.895 16.2766 172.395 16.6265 172.81 17.0713C173.224 17.5162 173.543 18.046 173.747 18.6264C173.95 19.2069 174.032 19.8249 173.989 20.4404L173.989 29.8887L169.594 29.8887L169.594 21.6497C169.594 20.138 168.935 19.4426 167.704 19.4426C167.43 19.4402 167.158 19.4986 166.907 19.6138C166.656 19.729 166.433 19.8983 166.251 20.1103C166.069 20.3224 165.933 20.5722 165.853 20.843C165.772 21.1138 165.749 21.3992 165.785 21.68L165.785 29.8887L161.61 29.8887L161.61 21.5893C161.61 20.1985 160.951 19.4426 159.75 19.4426C159.472 19.4427 159.198 19.5035 158.945 19.621C158.691 19.7386 158.465 19.9101 158.281 20.1244C158.097 20.3387 157.959 20.5908 157.876 20.8642C157.794 21.1375 157.768 21.4259 157.801 21.7102L157.801 29.8887L153.406 29.8887L153.479 15.9807Z" fill="#FFFFFF" fill-opacity="1.000000" fill-rule="nonzero"/>
	<path id="Vector" d="M38.1013 12.3829C37.356 10.6238 36.3691 8.98441 35.1714 7.5151C33.4011 5.27825 31.1917 3.45367 28.6887 2.16146C26.1855 0.869246 23.4458 0.1387 20.6497 0.0179005C17.8533 -0.1029 15.064 0.388783 12.4651 1.46059C9.86621 2.5324 7.5166 4.16004 5.57129 6.23637C3.62598 8.3127 2.12866 10.7906 1.17822 13.5071C0.227539 16.2236 -0.154541 19.117 0.0563965 21.9969C0.267578 24.8769 1.06738 27.678 2.40332 30.2159C3.73901 32.7539 5.58057 34.9712 7.8064 36.7218C9.23486 37.8675 10.813 38.7989 12.4944 39.4883C14.8513 40.4851 17.374 40.9985 19.9214 41C25.1797 40.988 30.2188 38.8251 33.9343 34.9853C37.6497 31.1455 39.7383 25.9422 39.7419 20.516C39.7458 17.7171 39.1873 14.9477 38.1013 12.3829ZM19.9067 4.17416C22.1943 4.17391 24.4543 4.68987 26.5283 5.6859C26.0227 5.9114 25.491 6.0689 24.9463 6.15454C23.1541 6.42226 21.4937 7.2809 20.2134 8.60229C18.9329 9.92369 18.1008 11.637 17.8413 13.4864C17.7275 14.5237 17.2703 15.4886 16.5471 16.2184C15.8237 16.9483 14.8787 17.3983 13.8713 17.4925C12.0791 17.7603 10.4189 18.6189 9.13843 19.9403C7.85791 21.2617 7.02588 22.975 6.76636 24.8244C6.67847 25.8107 6.27075 26.7375 5.60913 27.4549C4.46729 24.9654 3.95459 22.2184 4.11816 19.4695C4.28174 16.7205 5.1167 14.0589 6.54517 11.7325C7.97363 9.40597 9.94897 7.49018 12.2878 6.16338C14.6267 4.83657 17.2527 4.14187 19.9214 4.14393L19.9067 4.17416ZM7.79175 31.0981C7.96753 30.9319 8.14355 30.7807 8.31934 30.5993C9.62256 29.2953 10.459 27.5741 10.6924 25.7164C10.7871 24.6721 11.2388 23.6968 11.9668 22.965C12.6675 22.2124 13.6106 21.7501 14.6184 21.6649C16.4106 21.3972 18.0708 20.5386 19.3513 19.2172C20.6318 17.8958 21.4639 16.1825 21.7234 14.333C21.7869 13.2408 22.241 12.2118 22.9978 11.4456C23.7158 10.7077 24.6677 10.2621 25.6787 10.1909C27.3252 9.9571 28.8608 9.20176 30.0735 8.02909C31.4543 9.21137 32.6245 10.6336 33.5308 12.2317C33.4751 12.3093 33.4111 12.3803 33.3403 12.4434C32.6411 13.2025 31.6992 13.6751 30.6887 13.7737C28.8948 14.0367 27.2319 14.8938 25.9507 16.2161C24.6694 17.5384 23.8386 19.2542 23.5837 21.1056C23.4807 22.1463 23.032 23.1182 22.3137 23.8566C21.5955 24.5949 20.6521 25.0544 19.6431 25.157C17.8457 25.4227 16.1792 26.2796 14.8914 27.6005C13.6035 28.9214 12.7627 30.6357 12.4944 32.4889C12.4155 33.2278 12.1697 33.9372 11.7764 34.56C10.2734 33.6391 8.92725 32.4696 7.79175 31.0981ZM19.9067 36.9334C18.4204 36.9351 16.9409 36.7214 15.512 36.2985C16.0007 35.3582 16.3186 34.3335 16.4497 33.275C16.5522 32.2366 16.9988 31.2666 17.7141 30.5285C18.4294 29.7904 19.3694 29.3295 20.3757 29.2236C22.1704 28.9589 23.834 28.1016 25.1174 26.7799C26.4009 25.4583 27.2351 23.7433 27.4951 21.8917C27.5979 20.8533 28.0444 19.8832 28.7598 19.1451C29.4749 18.4071 30.415 17.9462 31.4211 17.8402C32.772 17.6589 34.0593 17.14 35.1714 16.3285C35.7891 18.7441 35.8621 21.2736 35.3853 23.7229C34.9084 26.1722 33.8943 28.4763 32.4204 30.4583C30.9468 32.4403 29.0527 34.0477 26.8835 35.157C24.7144 36.2663 22.3276 36.8481 19.9067 36.8579L19.9067 36.9334Z" fill="#C40B0B" fill-opacity="1.000000" fill-rule="nonzero"/>
</svg>
