<svg width="77.000000" height="76.000000" viewBox="0 0 77 76" fill="none" xmlns="http://www.w3.org/2000/svg" xmlns:xlink="http://www.w3.org/1999/xlink">
	<desc>
			Created with Pixso.
	</desc>
	<defs/>
	<path id="Shape" d="M72.2 0L31.66 0C31.47 0 31.28 0.05 31.11 0.13C21.09 1.1 13.27 9.23 12.68 19.28C12.57 21.77 12.92 24.25 13.7 26.61C6.16 26.88 0.2 33.1 0.26 40.65C0.32 48.19 6.38 54.32 13.93 54.46L63.33 54.46C66.13 54.46 68.4 56.73 68.4 59.53C68.4 62.33 66.13 64.6 63.33 64.6L36.73 64.6C36.73 63.2 35.59 62.06 34.2 62.06L24.06 62.06C22.66 62.06 21.53 63.2 21.53 64.6L18.45 64.6C17.94 64.57 17.5 64.21 17.36 63.72C16.45 61.21 14.07 59.54 11.4 59.53L6.33 59.53C2.83 59.53 0 62.37 0 65.86L0 72.06C-0.03 73.95 1.31 75.58 3.16 75.94C3.37 75.98 3.58 75.99 3.8 76C4.8 76 5.77 75.59 6.48 74.88C7.2 74.17 7.6 73.2 7.6 72.2L7.6 67.13L10.27 67.17C10.9 70.1 13.47 72.19 16.46 72.2L21.53 72.2C21.53 73.59 22.66 74.73 24.06 74.73L34.2 74.73C35.59 74.73 36.73 73.59 36.73 72.2L63.33 72.2C70.32 72.2 76 66.52 76 59.53C76 52.53 70.32 46.86 63.33 46.86L13.93 46.86C10.43 46.86 7.6 44.03 7.6 40.53C7.6 37.03 10.43 34.2 13.93 34.2L18.22 34.2C18.23 34.21 18.25 34.23 18.26 34.25C22.08 38.28 27.38 40.55 32.93 40.53C41.77 40.53 47.97 36.79 52.07 34.32L52.58 34.01C57.91 30.82 70.46 23.1 74.18 20.82C75.31 20.13 76 18.9 76 17.58L76 3.79C76 1.7 74.29 0 72.2 0L72.2 0ZM16.46 69.66C14.67 69.66 13.13 68.41 12.75 66.66C12.52 65.46 11.48 64.6 10.27 64.6L7.6 64.6C6.2 64.6 5.06 65.73 5.06 67.13L5.06 72.2C5.06 72.57 4.89 72.93 4.61 73.17C4.32 73.41 3.94 73.51 3.57 73.44C2.94 73.28 2.5 72.71 2.53 72.06L2.53 65.86C2.53 63.76 4.23 62.06 6.33 62.06L11.4 62.06C13 62.07 14.43 63.07 14.98 64.57C15.47 66.08 16.86 67.11 18.45 67.13L21.53 67.13L21.53 69.66L16.46 69.66ZM43.06 2.53L43.06 3.79C43.06 4.49 42.5 5.06 41.8 5.06L34.2 5.06C33.5 5.06 32.93 4.49 32.93 3.79L32.93 2.55C33.11 2.55 33.28 2.53 33.47 2.53L43.06 2.53ZM24.06 72.2L24.06 64.6L34.2 64.6L34.2 72.2L24.06 72.2ZM13.93 31.66C9.03 31.66 5.06 35.63 5.06 40.53C5.06 45.43 9.03 49.39 13.93 49.39L63.33 49.39C68.93 49.39 73.46 53.93 73.46 59.53C73.46 65.12 68.93 69.66 63.33 69.66L36.73 69.66L36.73 67.13L63.33 67.13C67.53 67.13 70.93 63.73 70.93 59.53C70.93 55.33 67.53 51.93 63.33 51.93L13.93 51.93C7.63 51.93 2.53 46.82 2.53 40.53C2.53 34.23 7.63 29.13 13.93 29.13L14.7 29.13C15.13 30.01 15.63 30.86 16.19 31.66L13.93 31.66ZM73.46 17.58C73.46 18.02 73.24 18.43 72.86 18.66C69.14 20.94 56.6 28.65 51.28 31.84L50.76 32.15C46.9 34.48 41.07 38 32.93 38C28.08 38 23.44 36.01 20.09 32.49C16.74 28.98 14.98 24.25 15.22 19.4C15.71 10.97 22.04 4.04 30.4 2.79L30.4 3.79C30.4 5.89 32.1 7.6 34.2 7.6L41.8 7.6C43.89 7.6 45.6 5.89 45.6 3.79L45.6 2.53L72.2 2.53C72.89 2.53 73.46 3.1 73.46 3.79L73.46 17.58Z" fill="#5D62B5" fill-opacity="1.000000" fill-rule="nonzero"/>
</svg>
